<svg xmlns="http://www.w3.org/2000/svg" width="640" height="384.7" viewBox="0 0 640 384.652"><path fill="#3F506E" d="M48 100V1h14.7v99c0 14.2-12.6 26-27.7 26-15 0-27.3-11.8-27.3-26V1h14.5v99c0 6.2 6 11.4 12.8 11.4s13-5.2 13-11.4zM102.6 125.2H88V1.2h16l26.4 79.2V1H145v124.2h-13.5l-29-81.7v81.7zM205 125.2h-14.4V1.2H205v124zM424.4 385H410v-33.2h14.4v33zM632 385h-14.3v-76.2H632v76zM450.3 385h-14.5v-82.2h14.5v82zM476.3 385h-14.5v-58.2h14.5v58zM502.3 385h-14.5v-38h14.5v38zM528.3 385h-14.5v-76.2h14.5v76zM554.2 385h-14.5V280.7h14.5v104zM580.2 385h-14.5V261h14.5v124zM606.2 385h-14.5v-92.2h14.5v92zM309.6 101c0 14.3-14.2 25-30.4 25-15.8 0-30.3-10.7-30.3-25V26.2c0-14.3 14.4-25 30.2-25 16.2 0 30.4 10.7 30.4 25V101zm-14.5 0V26.2c0-6.3-7.3-10.8-15.8-10.8-8.3 0-15.8 4.5-15.8 10.8V101c0 6.3 7.5 10.8 15.8 10.8 8.5 0 16-4.5 16-10.8zM368 125.2h-14.3V15.7H334V1h53.5v14.7H368v109.5zM459 125.2l-7-30.7h-20.4l-6.8 30.7h-15l25-124h13.4L474 125h-15zm-9.7-45.4l-7.7-37.4-7.3 37.4h15zM506 125.2h-14.4V1.2H506V43c10.2-13.8 20.8-28.5 31-42h18l-35.5 48.3 32.5 76h-15.6l-27-62.4-3.3 4.5v57.7zM617.5 100V1H632v99c0 14.2-12.4 26-27.5 26-15 0-27.3-11.8-27.3-26V1h14.5v99c0 6.2 6 11.4 12.8 11.4s13-5.2 13-11.4zM21 175.5c0 6.4 6.2 10.3 13.4 10.8 14 1 27.4 10.4 27.4 25V229c0 14.7-12.6 26.5-27.7 26.5-15.3 0-27.7-11.8-27.7-26.4v-12h14.5v12c0 6.5 6 12 13.3 12s13-5.5 13-12v-17.7c0-6.4-6-10.8-13.2-10.8-14.6 0-27.5-10.6-27.5-25v-18.2c0-14.6 12.4-26.5 27.8-26.5 15.5 0 27.8 12 27.8 26.5v12.4H47.3v-12.4c0-6.6-6-12-13.2-12-7.3 0-13 5.6-13 12v18.2zM143.2 255h-14.7v-53h-24v53H90V130.7h14.5v56.5h24v-56.5h14.7v124zM228.2 230.8c0 14.2-14.2 25-30.3 25-16 0-30.5-10.8-30.5-25v-75c0-14.2 14.5-25 30.4-25 16 0 30.2 10.8 30.2 25v75zm-14.5 0v-75c0-6-7.4-10.7-15.8-10.7s-16 4.7-16 11v74.8c0 6.2 7.6 10.7 16 10.7 8.3 0 15.7-4.5 15.7-10.7zM292 229.7v-99h14.7v99c0 14.3-12.5 26-27.6 26-15 0-27.2-11.7-27.2-26v-99h14.5v99c0 6.2 5.8 11.4 12.8 11.4s13-5 13-11.3zM368 255h-14.3V145.3H334v-14.6h53.5v14.6H368V255zM410 130.8h27.8c15.3 0 27.8 12.5 27.8 27.8v15.7c0 7.6-3 14-7.7 19 7.4 5.6 12 14.7 12 24.2v7.3c0 17-13.5 30-30 30h-30V131zm14.4 14.6v42h13.4c7 0 13-6 13-13v-15.8c0-7-6-13.2-13-13.2h-13.4zm0 56.7v38.3H440c8.4 0 15.3-7 15.3-15.5v-7.3c0-8.5-7-15.4-15.4-15.4h-15.6zM548.6 230.8c0 14.2-14.2 25-30.3 25-16 0-30.4-10.8-30.4-25v-75c0-14.2 14.4-25 30.3-25 16 0 30.3 10.8 30.3 25v75zm-14.5 0v-75c0-6-7.3-10.7-15.7-10.7-8.3 0-16 4.7-16 11v74.8c0 6.2 7.7 10.7 16 10.7 8.4 0 15.8-4.5 15.8-10.7zM632 255h-15.6l-19.7-42.2c-6.5 15-13.5 27.7-19.8 42H561l27.6-60-27.5-64h16l19.4 45.3C603 161.3 610 145.4 616 131h16c-15.4 36.6-20.8 49.5-27.3 63.8L632 255zM21 305.2c0 6.4 6.2 10.3 13.4 10.8 14 1 27.4 10.5 27.4 25V359c0 14.6-12.6 26.4-27.7 26.4-15.3 0-27.7-11.8-27.7-26.4v-12h14.5v12c0 6.4 6 12 13.3 12s13-5.6 13-12V341c0-6.3-6-10.7-13.2-10.7-14.6 0-27.5-10.7-27.5-25V287c0-14.6 12.4-26.4 27.8-26.4 15.5 0 27.8 11.8 27.8 26.4v12.4H47.3V287c0-6.5-6-12-13.2-12-7.3 0-13 5.6-13 12v18.2zM124 384.6h-14.6V275H89.8v-14.4h53.5V275H124v109.6zM215 384.6l-7-30.6h-20.5l-6.7 30.6h-15l25-124H204l25.8 124h-15zm-9.8-45.4l-7.7-37.3-7.2 37.2h15zM347.7 305.2c0 6.4 6.2 10.3 13.4 10.8 14 1 27.5 10.5 27.5 25V359c0 14.6-12.6 26.4-27.7 26.4-15.4 0-27.8-11.8-27.8-26.4v-12h14.5v12c0 6.4 6 12 13.3 12s13-5.6 13-12V341c0-6.3-6.2-10.7-13.3-10.7-14.6 0-27.5-10.7-27.5-25V287c0-14.6 12.4-26.4 27.8-26.4s27.7 11.8 27.7 26.4v12.4H374V287c0-6.5-6-12-13.2-12-7.4 0-13 5.6-13 12v18.2zM286.6 384.6H272V275h-19.5v-14.4H306V275h-19.4v109.6z"/></svg>